<svg id="Layer_1" data-name="Layer 1" xmlns="http://www.w3.org/2000/svg" viewBox="0 0 538.25 338.92"><defs><style>.cls-1{font-size:220.11px;font-family:ArialNarrow, Arial Narrow;}.cls-1,.cls-2{fill:#2f0d00;}</style></defs><title>logo</title><text class="cls-1" transform="translate(0 271.43)">TIPPI</text><path class="cls-2" d="M182.88,184.05A275.88,275.88,0,0,1,208,171.16c2.13-1,4.28-2,6.46-2.89s4.32-1.89,6.51-2.76l6.56-2.68c2.19-.88,4.4-1.7,6.6-2.56C243,156.9,252,153.92,261,151c4.52-1.41,9.06-2.72,13.6-4s9.14-2.48,13.73-3.65a497.64,497.64,0,0,1,112.61-14.83c9.5.07,19,0,28.49.57,9.5.33,19,1.36,28.41,2.21l14.13,1.9,3.53.48c1.17.16,2.35.31,3.51.55l7,1.29,7,1.28c2.34.44,4.68.82,7,1.41l13.86,3.25,3.46.81c1.15.3,2.29.65,3.43,1l6.84,2,6.83,2c1.13.33,2.28.65,3.41,1l3.36,1.16,13.42,4.65,3.35,1.16,3.3,1.32,6.58,2.65a390.65,390.65,0,0,1,50.73,25c-4.4-1.71-8.74-3.5-13.1-5.24l-6.5-2.67-1.63-.67-1.65-.59-3.32-1.17c-4.42-1.56-8.8-3.19-13.19-4.79-1.1-.39-2.18-.83-3.3-1.17l-3.35-1.05-6.69-2.08-6.66-2.14-3.33-1.07-3.37-.92L539,156.84l-3.36-.91-3.41-.77-6.8-1.56-6.8-1.56-3.4-.78-3.43-.64-13.69-2.56c-2.28-.47-4.58-.78-6.88-1.12l-6.89-1-6.88-1c-2.29-.35-4.61-.53-6.91-.81l-13.84-1.51c-9.26-.6-18.49-1.53-27.77-1.69-9.27-.51-18.55-.38-27.82-.42a612.25,612.25,0,0,0-110.7,12c-18.26,3.67-36.41,8.06-54.34,13.35-9,2.51-17.89,5.43-26.77,8.41-4.44,1.48-8.86,3.06-13.25,4.7S187.23,182.25,182.88,184.05Z" transform="translate(-182.88 -128.48)"/></svg>